<svg width="171" height="151" viewBox="0 0 171 151" fill="none" xmlns="http://www.w3.org/2000/svg">
<rect width="171" height="151" fill="white"/>
<path d="M53.4 106.864C49.24 106.864 45.496 106.128 42.168 104.656C38.904 103.12 36.312 101.072 34.392 98.512C32.472 95.888 31.448 92.976 31.32 89.776H42.648C42.84 92.016 43.896 93.904 45.816 95.44C47.8 96.912 50.264 97.648 53.208 97.648C56.28 97.648 58.648 97.072 60.312 95.92C62.04 94.704 62.904 93.168 62.904 91.312C62.904 89.328 61.944 87.856 60.024 86.896C58.168 85.936 55.192 84.88 51.096 83.728C47.128 82.64 43.896 81.584 41.4 80.56C38.904 79.536 36.728 77.968 34.872 75.856C33.08 73.744 32.184 70.96 32.184 67.504C32.184 64.688 33.016 62.128 34.68 59.824C36.344 57.456 38.712 55.6 41.784 54.256C44.92 52.912 48.504 52.24 52.536 52.24C58.552 52.24 63.384 53.776 67.032 56.848C70.744 59.856 72.728 63.984 72.984 69.232H62.04C61.848 66.864 60.888 64.976 59.16 63.568C57.432 62.16 55.096 61.456 52.152 61.456C49.272 61.456 47.064 62 45.528 63.088C43.992 64.176 43.224 65.616 43.224 67.408C43.224 68.816 43.736 70 44.76 70.96C45.784 71.92 47.032 72.688 48.504 73.264C49.976 73.776 52.152 74.448 55.032 75.28C58.872 76.304 62.008 77.36 64.44 78.448C66.936 79.472 69.08 81.008 70.872 83.056C72.664 85.104 73.592 87.824 73.656 91.216C73.656 94.224 72.824 96.912 71.16 99.28C69.496 101.648 67.128 103.504 64.056 104.848C61.048 106.192 57.496 106.864 53.4 106.864ZM81.8333 79.312C81.8333 74 82.9213 69.296 85.0973 65.2C87.3373 61.104 90.3453 57.936 94.1213 55.696C97.9613 53.392 102.185 52.24 106.793 52.24C110.953 52.24 114.569 53.072 117.641 54.736C120.777 56.336 123.273 58.352 125.129 60.784V53.104H136.169V106H125.129V98.128C123.273 100.624 120.745 102.704 117.545 104.368C114.345 106.032 110.697 106.864 106.601 106.864C102.057 106.864 97.8973 105.712 94.1213 103.408C90.3453 101.04 87.3373 97.776 85.0973 93.616C82.9213 89.392 81.8333 84.624 81.8333 79.312ZM125.129 79.504C125.129 75.856 124.361 72.688 122.825 70C121.353 67.312 119.401 65.264 116.969 63.856C114.537 62.448 111.913 61.744 109.097 61.744C106.281 61.744 103.657 62.448 101.225 63.856C98.7933 65.2 96.8093 67.216 95.2733 69.904C93.8013 72.528 93.0653 75.664 93.0653 79.312C93.0653 82.96 93.8013 86.16 95.2733 88.912C96.8093 91.664 98.7933 93.776 101.225 95.248C103.721 96.656 106.345 97.36 109.097 97.36C111.913 97.36 114.537 96.656 116.969 95.248C119.401 93.84 121.353 91.792 122.825 89.104C124.361 86.352 125.129 83.152 125.129 79.504Z" fill="black"/>
</svg>
